<mxfile host="app.diagrams.net" modified="2022-09-15T10:03:18.793Z" agent="5.0 (Windows NT 10.0; Win64; x64) AppleWebKit/537.36 (KHTML, like Gecko) Chrome/105.0.0.0 Safari/537.36" etag="gExOJjzHQkoLJlIz8n7O" version="20.3.0" type="github">
  <diagram id="prtHgNgQTEPvFCAcTncT" name="Page-1">
    <mxGraphModel dx="1274" dy="771" grid="1" gridSize="10" guides="1" tooltips="1" connect="1" arrows="1" fold="1" page="1" pageScale="1" pageWidth="827" pageHeight="1169" math="0" shadow="0">
      <root>
        <mxCell id="0" />
        <mxCell id="1" parent="0" />
        <mxCell id="CijKE6sO3IoXTaLPwiFw-1" value="&lt;font face=&quot;宋体&quot; style=&quot;font-size: 24px;&quot;&gt;待测气体&lt;/font&gt;" style="rounded=0;whiteSpace=wrap;html=1;" vertex="1" parent="1">
          <mxGeometry x="120" y="100" width="360" height="50" as="geometry" />
        </mxCell>
        <mxCell id="CijKE6sO3IoXTaLPwiFw-2" value="&lt;font face=&quot;宋体&quot;&gt;传&lt;br&gt;感&lt;br&gt;器&lt;br&gt;1&lt;/font&gt;" style="rounded=0;whiteSpace=wrap;html=1;fontSize=24;" vertex="1" parent="1">
          <mxGeometry x="130" y="190" width="50" height="160" as="geometry" />
        </mxCell>
        <mxCell id="CijKE6sO3IoXTaLPwiFw-3" value="&lt;font face=&quot;宋体&quot;&gt;传&lt;br&gt;感&lt;br&gt;器&lt;br&gt;2&lt;/font&gt;" style="rounded=0;whiteSpace=wrap;html=1;fontSize=24;" vertex="1" parent="1">
          <mxGeometry x="220" y="190" width="55" height="160" as="geometry" />
        </mxCell>
        <mxCell id="CijKE6sO3IoXTaLPwiFw-4" value="&lt;font face=&quot;宋体&quot;&gt;传&lt;br&gt;感&lt;br&gt;器&lt;br&gt;3&lt;/font&gt;" style="rounded=0;whiteSpace=wrap;html=1;fontSize=24;" vertex="1" parent="1">
          <mxGeometry x="320" y="190" width="50" height="160" as="geometry" />
        </mxCell>
        <mxCell id="CijKE6sO3IoXTaLPwiFw-5" value="&lt;font face=&quot;宋体&quot;&gt;传&lt;br&gt;感&lt;br&gt;器&lt;br&gt;4&lt;/font&gt;" style="rounded=0;whiteSpace=wrap;html=1;fontSize=24;" vertex="1" parent="1">
          <mxGeometry x="413.5" y="190" width="50" height="160" as="geometry" />
        </mxCell>
        <mxCell id="CijKE6sO3IoXTaLPwiFw-7" value="" style="shape=flexArrow;endArrow=classic;html=1;rounded=0;fontSize=24;exitX=0.093;exitY=0.996;exitDx=0;exitDy=0;exitPerimeter=0;entryX=0.5;entryY=0;entryDx=0;entryDy=0;" edge="1" parent="1" source="CijKE6sO3IoXTaLPwiFw-1" target="CijKE6sO3IoXTaLPwiFw-2">
          <mxGeometry width="50" height="50" relative="1" as="geometry">
            <mxPoint x="390" y="290" as="sourcePoint" />
            <mxPoint x="440" y="240" as="targetPoint" />
          </mxGeometry>
        </mxCell>
        <mxCell id="CijKE6sO3IoXTaLPwiFw-8" value="" style="shape=flexArrow;endArrow=classic;html=1;rounded=0;fontSize=24;exitX=0.093;exitY=0.996;exitDx=0;exitDy=0;exitPerimeter=0;entryX=0.5;entryY=0;entryDx=0;entryDy=0;" edge="1" parent="1">
          <mxGeometry width="50" height="50" relative="1" as="geometry">
            <mxPoint x="246.74" y="149.99999999999994" as="sourcePoint" />
            <mxPoint x="248.26" y="190.2" as="targetPoint" />
          </mxGeometry>
        </mxCell>
        <mxCell id="CijKE6sO3IoXTaLPwiFw-9" value="" style="shape=flexArrow;endArrow=classic;html=1;rounded=0;fontSize=24;exitX=0.093;exitY=0.996;exitDx=0;exitDy=0;exitPerimeter=0;entryX=0.5;entryY=0;entryDx=0;entryDy=0;" edge="1" parent="1">
          <mxGeometry width="50" height="50" relative="1" as="geometry">
            <mxPoint x="344.24" y="149.99999999999994" as="sourcePoint" />
            <mxPoint x="345.76" y="190.2" as="targetPoint" />
          </mxGeometry>
        </mxCell>
        <mxCell id="CijKE6sO3IoXTaLPwiFw-10" value="" style="shape=flexArrow;endArrow=classic;html=1;rounded=0;fontSize=24;exitX=0.093;exitY=0.996;exitDx=0;exitDy=0;exitPerimeter=0;entryX=0.5;entryY=0;entryDx=0;entryDy=0;" edge="1" parent="1">
          <mxGeometry width="50" height="50" relative="1" as="geometry">
            <mxPoint x="437.74" y="149.99999999999994" as="sourcePoint" />
            <mxPoint x="439.26" y="190.2" as="targetPoint" />
          </mxGeometry>
        </mxCell>
        <mxCell id="CijKE6sO3IoXTaLPwiFw-11" value="&lt;font face=&quot;宋体&quot;&gt;信号采样调理&lt;/font&gt;" style="rounded=0;whiteSpace=wrap;html=1;fontSize=24;" vertex="1" parent="1">
          <mxGeometry x="130" y="400" width="340" height="50" as="geometry" />
        </mxCell>
        <mxCell id="CijKE6sO3IoXTaLPwiFw-13" value="" style="shape=flexArrow;endArrow=classic;html=1;rounded=0;fontSize=24;" edge="1" parent="1">
          <mxGeometry width="50" height="50" relative="1" as="geometry">
            <mxPoint x="154.5" y="350" as="sourcePoint" />
            <mxPoint x="154.5" y="400" as="targetPoint" />
            <Array as="points">
              <mxPoint x="154.5" y="400" />
            </Array>
          </mxGeometry>
        </mxCell>
        <mxCell id="CijKE6sO3IoXTaLPwiFw-14" value="" style="shape=flexArrow;endArrow=classic;html=1;rounded=0;fontSize=24;" edge="1" parent="1">
          <mxGeometry width="50" height="50" relative="1" as="geometry">
            <mxPoint x="247" y="350" as="sourcePoint" />
            <mxPoint x="247" y="400" as="targetPoint" />
            <Array as="points">
              <mxPoint x="247" y="400" />
            </Array>
          </mxGeometry>
        </mxCell>
        <mxCell id="CijKE6sO3IoXTaLPwiFw-15" value="" style="shape=flexArrow;endArrow=classic;html=1;rounded=0;fontSize=24;" edge="1" parent="1">
          <mxGeometry width="50" height="50" relative="1" as="geometry">
            <mxPoint x="344.5" y="350" as="sourcePoint" />
            <mxPoint x="344.5" y="400" as="targetPoint" />
            <Array as="points">
              <mxPoint x="344.5" y="400" />
            </Array>
          </mxGeometry>
        </mxCell>
        <mxCell id="CijKE6sO3IoXTaLPwiFw-16" value="" style="shape=flexArrow;endArrow=classic;html=1;rounded=0;fontSize=24;" edge="1" parent="1">
          <mxGeometry width="50" height="50" relative="1" as="geometry">
            <mxPoint x="438" y="350" as="sourcePoint" />
            <mxPoint x="438" y="400" as="targetPoint" />
            <Array as="points">
              <mxPoint x="438" y="400" />
            </Array>
          </mxGeometry>
        </mxCell>
        <mxCell id="CijKE6sO3IoXTaLPwiFw-17" value="&lt;font face=&quot;宋体&quot;&gt;获取信号特性参数&lt;/font&gt;" style="rounded=0;whiteSpace=wrap;html=1;fontSize=24;" vertex="1" parent="1">
          <mxGeometry x="130" y="500" width="340" height="50" as="geometry" />
        </mxCell>
        <mxCell id="CijKE6sO3IoXTaLPwiFw-18" value="&lt;font face=&quot;宋体&quot;&gt;数据预处理，特征提取&lt;/font&gt;" style="rounded=0;whiteSpace=wrap;html=1;fontSize=24;" vertex="1" parent="1">
          <mxGeometry x="130" y="600" width="340" height="50" as="geometry" />
        </mxCell>
        <mxCell id="CijKE6sO3IoXTaLPwiFw-19" value="&lt;font face=&quot;宋体&quot;&gt;本课题算法计算鉴定&lt;/font&gt;" style="rounded=0;whiteSpace=wrap;html=1;fontSize=24;" vertex="1" parent="1">
          <mxGeometry x="130" y="700" width="340" height="50" as="geometry" />
        </mxCell>
        <mxCell id="CijKE6sO3IoXTaLPwiFw-20" value="&lt;font face=&quot;宋体&quot;&gt;毒品信号检测结果&lt;/font&gt;" style="rounded=0;whiteSpace=wrap;html=1;fontSize=24;" vertex="1" parent="1">
          <mxGeometry x="130" y="790" width="340" height="50" as="geometry" />
        </mxCell>
        <mxCell id="CijKE6sO3IoXTaLPwiFw-21" value="" style="shape=flexArrow;endArrow=classic;html=1;rounded=0;fontSize=24;exitX=0.5;exitY=1;exitDx=0;exitDy=0;" edge="1" parent="1" source="CijKE6sO3IoXTaLPwiFw-11" target="CijKE6sO3IoXTaLPwiFw-17">
          <mxGeometry width="50" height="50" relative="1" as="geometry">
            <mxPoint x="390" y="570" as="sourcePoint" />
            <mxPoint x="440" y="520" as="targetPoint" />
          </mxGeometry>
        </mxCell>
        <mxCell id="CijKE6sO3IoXTaLPwiFw-22" value="" style="shape=flexArrow;endArrow=classic;html=1;rounded=0;fontSize=24;exitX=0.5;exitY=1;exitDx=0;exitDy=0;" edge="1" parent="1">
          <mxGeometry width="50" height="50" relative="1" as="geometry">
            <mxPoint x="299.5" y="550" as="sourcePoint" />
            <mxPoint x="299.5" y="600" as="targetPoint" />
          </mxGeometry>
        </mxCell>
        <mxCell id="CijKE6sO3IoXTaLPwiFw-23" value="" style="shape=flexArrow;endArrow=classic;html=1;rounded=0;fontSize=24;exitX=0.5;exitY=1;exitDx=0;exitDy=0;" edge="1" parent="1">
          <mxGeometry width="50" height="50" relative="1" as="geometry">
            <mxPoint x="299.5" y="650" as="sourcePoint" />
            <mxPoint x="299.5" y="700" as="targetPoint" />
          </mxGeometry>
        </mxCell>
        <mxCell id="CijKE6sO3IoXTaLPwiFw-24" value="" style="shape=flexArrow;endArrow=classic;html=1;rounded=0;fontSize=24;exitX=0.5;exitY=1;exitDx=0;exitDy=0;" edge="1" parent="1">
          <mxGeometry width="50" height="50" relative="1" as="geometry">
            <mxPoint x="299.5" y="750" as="sourcePoint" />
            <mxPoint x="300" y="790" as="targetPoint" />
          </mxGeometry>
        </mxCell>
      </root>
    </mxGraphModel>
  </diagram>
</mxfile>
